<?xml version="1.0" encoding="utf-8"?>
<!-- Generator: Adobe Illustrator 22.1.0, SVG Export Plug-In . SVG Version: 6.00 Build 0)  -->
<svg version="1.1" id="Layer_1" xmlns="http://www.w3.org/2000/svg" xmlns:xlink="http://www.w3.org/1999/xlink" x="0px" y="0px"
	 width="360px" height="60px" viewBox="0 0 360 60" style="enable-background:new 0 0 360 60;" xml:space="preserve">
<style type="text/css">
	.st0{fill:#660000;}
	.st1{fill:#FF6600;}
	.st2{fill:#FFCC00;}
	.st3{fill:#993300;}
	.st4{fill:#FF9900;}
	.st5{enable-background:new    ;}
	.st6{clip-path:url(#SVGID_2_);fill:#993300;}
</style>
<g>
	<path class="st0" d="M211.5,21.3C211.5,21.3,211.5,21.3,211.5,21.3C211.4,21.3,211.4,21.3,211.5,21.3c0.1-0.1,0.2-0.3,0.3-0.5
		c0.2-0.5,0.3-1,0.2-1.6c0-0.6-0.2-1.1-0.5-1.6c-0.3-0.5-0.6-0.9-1-1.3c-0.4-0.4-0.9-0.6-1.5-0.8c-0.5-0.2-1.1-0.3-1.7-0.3
		s-1.2,0.1-1.7,0.3c-0.5,0.2-1,0.5-1.4,0.8c-0.4,0.4-0.7,0.8-0.9,1.3c-0.1,0.2-0.2,0.5-0.2,0.7c0,0,0,0,0,0c0,0,0-0.1,0-0.1
		c0-0.1,0-0.2,0.1-0.3l-8.1,28c0,0.1,0,0.1,0,0.2c0,0,0,0,0,0c0,0,0,0,0,0c0,0,0,0,0,0c0,0,0,0.1,0,0.1c0,0,0,0,0,0c0,0,0,0,0,0
		c0,0,0,0,0,0c0,0,0,0,0,0.1c0,0,0,0,0,0.1c0,0,0,0,0,0c0,0,0,0,0,0c0,0,0,0,0,0c0,0,0,0,0,0s0,0,0,0c0,0,0,0,0,0c0,0,0,0,0,0
		c0,0.1,0,0.1,0,0.2c0,0.1,0,0.1,0,0.2c0,0.1,0,0.1,0,0.2c0,0,0,0,0,0c0,0,0,0,0,0c0,0.1,0,0.1,0.1,0.2c0,0.1,0,0.1,0.1,0.2
		c0,0.1,0,0.1,0.1,0.2c0,0,0,0,0,0c0,0,0,0,0,0c0,0,0,0,0,0c0,0.1,0.1,0.1,0.1,0.2c0,0.1,0.1,0.1,0.1,0.2c0,0,0,0.1,0.1,0.1
		c0,0,0,0,0,0c0,0,0,0,0,0c0,0,0,0,0,0c0,0,0,0.1,0.1,0.1c0,0,0.1,0.1,0.1,0.1c0,0,0,0.1,0.1,0.1c0,0,0,0.1,0.1,0.1c0,0,0,0,0,0
		c0,0,0,0,0,0s0,0,0,0c0,0,0,0,0,0c0,0,0.1,0,0.1,0.1c0,0,0.1,0,0.1,0.1s0.1,0,0.1,0.1c0,0,0.1,0,0.1,0.1c0,0,0.1,0,0.1,0.1
		c0,0,0,0,0,0c0,0,0,0,0,0c0,0,0.1,0,0.1,0.1c0,0,0.1,0,0.1,0.1s0.1,0,0.1,0c0,0,0.1,0,0.1,0c0,0,0.1,0,0.1,0c0,0,0,0,0,0
		c0,0,0,0,0,0c0,0,0,0,0,0c0,0,0.1,0,0.1,0c0,0,0.1,0,0.1,0c0,0,0.1,0,0.1,0c0.1,0,0.1,0,0.2,0c0,0,0,0,0,0c0,0,0,0,0,0
		c0.1,0,0.1,0,0.2,0c0.1,0,0.1,0,0.2,0c0.1,0,0.1,0,0.2,0c0.1,0,0.1,0,0.2,0c0.1,0,0.1,0,0.2,0c0,0,0,0,0,0c0,0,0,0,0,0
		c0,0,0.1,0,0.1,0c0.1,0,0.1,0,0.2,0c0,0,0.1,0,0.1,0c0,0,0,0,0,0c0,0,0,0,0,0c0,0,0,0,0,0c0,0,0.1,0,0.1,0c0,0,0.1,0,0.1,0
		c0,0,0.1,0,0.1,0c0,0,0,0,0.1,0c0,0,0,0,0.1,0c0,0,0,0,0.1,0c0,0,0,0,0.1,0c0,0,0,0,0.1,0c0,0,0,0,0.1,0s0,0,0.1,0c0,0,0,0,0.1,0
		c0,0,0,0,0,0c0,0,0,0,0,0c0,0,0,0,0,0c0,0,0,0,0,0c0,0,0,0,0,0c0,0,0,0,0,0c0,0,0,0,0,0c0,0,0,0,0,0c0,0,0,0,0,0c0,0,0,0,0,0
		c0,0,0,0,0,0c0,0,0,0,0,0c0,0,0,0,0,0c0,0,0,0,0,0c0,0,0,0,0,0s0,0,0,0c0,0,0,0,0,0c0,0,0,0,0,0s0,0,0,0c0,0,0,0,0-0.1
		c0,0,0,0,0-0.1c0,0,0,0,0-0.1c0,0,0,0,0-0.1c0,0,0,0,0-0.1s0,0,0-0.1s0,0,0-0.1s0,0,0-0.1c0,0,0,0,0,0c0,0,0,0,0,0c0,0,0,0,0,0
		c0,0,0,0,0,0c0,0,0,0,0,0l11-27.1C211.7,20.9,211.6,21.1,211.5,21.3z"/>
	<polygon class="st0" points="81.8,9.4 75.4,3.6 41.2,3.6 39.9,7.7 33.6,3.6 16.5,3.6 4.7,35.8 67,58.2 78.8,58.2 79.8,53.2 
		90.6,58.2 101.2,58.2 105.1,53.4 113,58.2 124.8,58.2 125.5,51.8 132.9,58.2 165.3,58.2 157.2,35.8 135.4,2.8 123,17.2 113.5,3.6 
		83,3.6 	"/>
	<path class="st0" d="M192.8,10.3l-5.2-6.7h-22.8l-12.3,15.5l9.6,27.6l7.5,11.4h15.8c0,0,3-4.4,3.4-5l4.7-24.8
		c-1-0.4-1.9-0.9-2.9-1.3L192.8,10.3z"/>
	<polygon class="st0" points="343.5,3.6 326.4,3.6 319,8.4 309.3,3.6 294.3,14.7 282.5,2.8 259.6,24.2 256.1,3.6 240.3,13.8 
		221.8,3.6 207.6,35.9 208.9,58.2 232.6,58.2 236.5,55.1 234.7,58.2 267.2,58.2 269.2,57.2 269.4,58.2 293,58.2 355.3,35.8 	"/>
</g>
<g>
	<g>
		<polygon class="st0" points="23,35.8 78.8,58.2 67,58.2 4.7,35.8 		"/>
		<polygon class="st1" points="78.8,58.2 83.3,35.9 33.6,3.6 23,35.8 		"/>
		<polygon class="st2" points="33.6,3.6 23,35.8 4.7,35.8 16.5,3.6 		"/>
	</g>
	<g>
		<path class="st3" d="M95.5,41.7C95.5,41.7,95.5,41.7,95.5,41.7c0-0.1,0-0.3,0-0.4c0-0.2,0.1-0.4,0.2-0.6c0,0,0,0,0,0
			c0.1-0.2,0.2-0.4,0.3-0.6c0,0,0,0,0,0c0.1-0.2,0.2-0.3,0.4-0.5c0,0,0,0,0,0c0.1-0.2,0.3-0.3,0.5-0.4c0,0,0,0,0,0
			c0.2-0.1,0.3-0.3,0.5-0.4c0,0,0,0,0,0c0.2-0.1,0.4-0.2,0.6-0.3c0,0,0,0,0,0c0.2-0.1,0.4-0.1,0.6-0.2c0,0,0,0,0,0
			c0.2,0,0.4-0.1,0.6-0.1c0.2,0,0.3,0,0.5,0c0,0,0,0,0,0c0.2,0,0.3,0.1,0.4,0.1c0,0,0,0,0,0c0.1,0,0.3,0.1,0.4,0.2c0,0,0,0,0,0
			c0.1,0.1,0.3,0.1,0.4,0.2L60,7.8c0,0,0,0,0,0s0,0,0,0c0,0,0,0,0,0c0,0,0,0,0,0c0,0-0.1-0.1-0.1-0.1c0,0-0.1-0.1-0.1-0.1
			c0,0-0.1-0.1-0.1-0.1c0,0,0,0,0,0c0,0,0,0,0,0c0,0,0,0,0,0c0,0-0.1,0-0.1,0c-0.1,0-0.1-0.1-0.2-0.1c-0.1,0-0.1,0-0.2-0.1
			c-0.1,0-0.1,0-0.2-0.1c0,0,0,0,0,0c0,0,0,0,0,0c0,0,0,0,0,0c-0.1,0-0.1,0-0.2-0.1c-0.1,0-0.2,0-0.3-0.1c-0.1,0-0.1,0-0.2,0
			c0,0,0,0,0,0c0,0,0,0,0,0c0,0,0,0-0.1,0c-0.1,0-0.2,0-0.3,0c-0.1,0-0.2,0-0.3,0c-0.1,0-0.2,0-0.3,0s-0.2,0-0.3,0
			c-0.1,0-0.2,0-0.3,0c0,0,0,0,0,0c0,0,0,0,0,0c-0.1,0-0.2,0-0.3,0.1c-0.1,0-0.1,0-0.2,0s-0.1,0-0.2,0c-0.1,0-0.1,0-0.2,0
			c-0.1,0-0.1,0-0.2,0.1c0,0,0,0,0,0c0,0,0,0,0,0c0,0,0,0,0,0c0,0-0.1,0-0.1,0c0,0-0.1,0-0.1,0c0,0-0.1,0-0.1,0c0,0-0.1,0-0.1,0.1
			c0,0-0.1,0-0.1,0c0,0-0.1,0-0.1,0c0,0-0.1,0-0.1,0.1c0,0-0.1,0-0.1,0.1c0,0,0,0,0,0c0,0,0,0,0,0c0,0-0.1,0-0.1,0
			c0,0-0.1,0-0.1,0.1s-0.1,0-0.1,0.1c0,0-0.1,0-0.1,0.1c0,0-0.1,0-0.1,0.1S54,8,54,8c0,0-0.1,0-0.1,0.1c0,0-0.1,0-0.1,0.1
			c0,0-0.1,0-0.1,0.1c0,0,0,0,0,0c0,0,0,0,0,0c0,0,0,0,0,0c0,0,0,0-0.1,0c0,0-0.1,0-0.1,0.1c0,0-0.1,0-0.1,0.1c0,0-0.1,0-0.1,0.1
			s-0.1,0-0.1,0.1s-0.1,0-0.1,0.1c0,0-0.1,0-0.1,0.1c0,0-0.1,0.1-0.1,0.1c0,0-0.1,0.1-0.1,0.1c0,0,0,0,0,0c0,0,0,0,0,0
			c0,0,0,0-0.1,0.1c0,0-0.1,0.1-0.1,0.1c0,0-0.1,0.1-0.1,0.1s-0.1,0.1-0.1,0.1c0,0-0.1,0.1-0.1,0.1c0,0-0.1,0.1-0.1,0.1
			c0,0-0.1,0.1-0.1,0.1c0,0-0.1,0.1-0.1,0.1c0,0,0,0,0,0c0,0,0,0,0,0c0,0,0,0,0,0c0,0-0.1,0.1-0.1,0.1s-0.1,0.1-0.1,0.1
			c0,0.1-0.1,0.1-0.1,0.2c0,0.1-0.1,0.1-0.1,0.2c0,0.1-0.1,0.1-0.1,0.2c0,0,0,0,0,0c0,0,0,0,0,0c0,0.1-0.1,0.1-0.1,0.2
			c0,0.1,0,0.1-0.1,0.2c0,0.1,0,0.1-0.1,0.2c0,0.1,0,0.1-0.1,0.2s0,0.1,0,0.2c0,0.1,0,0.1-0.1,0.2c0,0.1,0,0.1,0,0.2
			c0,0.1,0,0.1,0,0.2c0,0,0,0,0,0c0,0,0,0,0,0c0,0.1,0,0.1,0,0.2c0,0.1,0,0.2,0,0.2c0,0,0,0,0,0.1c0,0,0,0,0,0c0,0,0,0,0,0
			c0,0,0,0.1,0,0.1c0,0.1,0,0.2,0,0.2c0,0,0,0.1,0,0.1c0,0,0,0,0,0.1c0,0,0,0.1,0,0.1c0,0.1,0,0.1,0,0.2c0,0.1,0,0.1,0,0.1
			c0,0,0,0,0,0.1c0,0,0,0,0,0c0,0,0,0,0,0c0,0,0,0,0,0.1c0,0,0,0.1,0.1,0.1c0,0,0,0.1,0.1,0.1s0,0.1,0.1,0.1c0,0,0,0,0,0
			c0,0,0,0,0,0c0,0,0,0.1,0.1,0.1c0,0,0,0.1,0.1,0.1c0,0,0,0.1,0.1,0.1c0,0,0,0.1,0.1,0.1c0,0,0,0,0,0c0,0,0,0,0,0c0,0,0,0,0,0
			c0,0,0.1,0.1,0.1,0.1c0,0,0.1,0.1,0.1,0.1c0,0,0.1,0.1,0.1,0.1c0,0,0,0,0.1,0.1c0,0,0,0,0,0c0,0,0,0,0,0c0,0,0.1,0.1,0.1,0.1
			c0,0,0.1,0.1,0.1,0.1c0,0,0,0,0,0c0,0,0,0,0,0s0,0,0,0c0,0,0,0,0,0c0,0,0,0,0,0l44,28.9c-0.2-0.1-0.4-0.3-0.5-0.5c0,0,0,0,0,0
			c-0.2-0.2-0.3-0.4-0.4-0.6c0,0,0,0,0,0c-0.1-0.2-0.2-0.5-0.2-0.7c0,0,0,0,0,0C95.5,41.9,95.5,41.8,95.5,41.7z"/>
		<path class="st3" d="M123.4,42.5C123.4,42.5,123.4,42.5,123.4,42.5c0.1-0.2,0.2-0.4,0.3-0.6c0,0,0,0,0,0c0.1-0.2,0.2-0.4,0.4-0.5
			c0,0,0,0,0,0c0.1-0.2,0.3-0.3,0.4-0.4c0,0,0,0,0,0c0.2-0.1,0.3-0.3,0.5-0.4c0,0,0,0,0,0c0.2-0.1,0.4-0.2,0.6-0.3c0,0,0,0,0,0
			c0.4-0.2,0.8-0.2,1.3-0.2c0.2,0,0.4,0,0.7,0.1c0,0,0,0,0,0c0.2,0,0.4,0.1,0.6,0.2c0,0,0,0,0,0c0.2,0.1,0.4,0.2,0.5,0.3
			c0,0,0,0,0,0c0.2,0.1,0.3,0.2,0.4,0.4l-26.7-30.2c0,0,0,0-0.1-0.1c0,0,0,0-0.1-0.1c0,0,0,0-0.1-0.1s0,0-0.1-0.1
			c0,0-0.1-0.1-0.1-0.1c0,0-0.1-0.1-0.1-0.1c0,0-0.1-0.1-0.1-0.1c0,0,0,0,0,0c0,0,0,0,0,0c0,0,0,0,0,0c0,0-0.1,0-0.1-0.1
			c0,0-0.1-0.1-0.1-0.1c0,0-0.1-0.1-0.1-0.1c0,0-0.1-0.1-0.1-0.1c0,0-0.1,0-0.1-0.1c0,0-0.1,0-0.1,0c0,0,0,0,0,0c0,0,0,0,0,0
			c0,0,0,0-0.1,0c-0.1,0-0.1,0-0.2-0.1c-0.1,0-0.1,0-0.2-0.1c-0.1,0-0.1,0-0.2-0.1c-0.1,0-0.2,0-0.3-0.1c0,0,0,0,0,0c0,0,0,0,0,0
			c0,0,0,0,0,0c-0.1,0-0.2,0-0.3,0s-0.2,0-0.3,0s-0.2,0-0.3,0c-0.1,0-0.2,0-0.3,0s-0.2,0-0.3,0c-0.1,0-0.2,0-0.3,0c0,0,0,0,0,0
			c0,0,0,0,0,0c-0.1,0-0.2,0-0.3,0.1c-0.1,0-0.1,0-0.2,0c-0.1,0-0.1,0-0.2,0c-0.1,0-0.1,0-0.2,0c-0.1,0-0.1,0-0.2,0.1c0,0,0,0,0,0
			c0,0,0,0,0,0c0,0,0,0,0,0c0,0-0.1,0-0.1,0c0,0-0.1,0-0.1,0c0,0-0.1,0-0.1,0c0,0-0.1,0-0.1,0.1c0,0-0.1,0-0.1,0c0,0-0.1,0-0.1,0
			c0,0-0.1,0-0.1,0.1c0,0-0.1,0-0.1,0.1c0,0,0,0,0,0c0,0,0,0,0,0c0,0,0,0-0.1,0c0,0-0.1,0-0.1,0.1c0,0-0.1,0-0.1,0.1s-0.1,0-0.1,0.1
			c0,0-0.1,0-0.1,0.1c0,0-0.1,0-0.1,0.1s-0.1,0-0.1,0.1c0,0-0.1,0-0.1,0.1c0,0-0.1,0-0.1,0.1c0,0,0,0,0,0c0,0,0,0,0,0c0,0,0,0,0,0
			c0,0,0,0-0.1,0c0,0-0.1,0-0.1,0.1c0,0-0.1,0-0.1,0.1c0,0-0.1,0-0.1,0.1s-0.1,0-0.1,0.1s-0.1,0-0.1,0.1c0,0-0.1,0-0.1,0.1
			c0,0-0.1,0.1-0.1,0.1c0,0-0.1,0.1-0.1,0.1c0,0,0,0,0,0c0,0,0,0,0,0c0,0,0,0,0,0.1c0,0,0,0.1-0.1,0.1c0,0-0.1,0.1-0.1,0.1
			c0,0-0.1,0.1-0.1,0.1c0,0-0.1,0.1-0.1,0.1c0,0,0,0.1-0.1,0.1c0,0-0.1,0.1-0.1,0.1c0,0,0,0.1-0.1,0.1c0,0,0,0,0,0c0,0,0,0,0,0
			c0,0,0,0,0,0c0,0-0.1,0.1-0.1,0.1c0,0,0,0.1-0.1,0.1c0,0.1-0.1,0.1-0.1,0.2s-0.1,0.1-0.1,0.2c0,0.1,0,0.1-0.1,0.2c0,0,0,0,0,0
			c0,0,0,0,0,0c0,0.1-0.1,0.1-0.1,0.2c0,0.1,0,0.1-0.1,0.2c0,0.1,0,0.1,0,0.2c0,0.1,0,0.1,0,0.2c0,0.1,0,0.1,0,0.2
			c0,0.1,0,0.1,0,0.2s0,0.1,0,0.2c0,0,0,0,0,0.1c0,0,0,0,0,0c0,0,0,0.1,0,0.1c0,0.1,0,0.1,0,0.2c0,0,0,0.1,0,0.1c0,0,0,0,0,0
			c0,0,0,0,0,0c0,0,0,0.1,0,0.1c0,0.1,0,0.2,0,0.2c0,0.1,0,0.2,0,0.2s0,0.2,0.1,0.2c0,0,0,0,0,0c0,0,0,0,0,0c0,0,0,0,0,0
			c0,0,0,0.1,0,0.1c0,0.1,0,0.1,0.1,0.2s0,0.1,0.1,0.1s0,0.1,0.1,0.1c0,0,0,0.1,0.1,0.1c0,0,0,0.1,0.1,0.1c0,0,0,0,0,0c0,0,0,0,0,0
			c0,0,0,0,0,0c0,0,0.1,0.1,0.1,0.1c0,0,0.1,0.1,0.1,0.1c0,0,0.1,0.1,0.1,0.1c0,0,0.1,0.1,0.1,0.1s0.1,0.1,0.1,0.1
			c0,0,0.1,0.1,0.1,0.1c0,0,0,0,0,0s0,0,0,0s0,0,0,0c0,0,0,0,0,0l29.6,28.3c-0.1-0.1-0.3-0.3-0.4-0.5c0,0,0,0,0,0
			c-0.1-0.2-0.2-0.3-0.3-0.5c0,0,0,0,0,0c-0.1-0.2-0.1-0.4-0.1-0.6c0,0,0,0,0,0c0-0.2,0-0.4,0-0.6C123.3,42.9,123.4,42.7,123.4,42.5
			z"/>
		<path class="st3" d="M149.6,53.4C149.6,53.4,149.6,53.4,149.6,53.4c0-0.2-0.1-0.3-0.1-0.5c0,0,0,0,0,0c0-0.2,0-0.3,0-0.5
			c0-0.2,0-0.4,0.1-0.6c0,0,0,0,0,0c0.1-0.2,0.1-0.4,0.2-0.6c0,0,0,0,0,0c0.1-0.2,0.2-0.4,0.3-0.5c0,0,0,0,0,0
			c0.1-0.2,0.3-0.3,0.4-0.5c0,0,0,0,0,0c0.2-0.1,0.3-0.3,0.5-0.4c0,0,0,0,0,0c0.2-0.1,0.4-0.2,0.6-0.3c0,0,0,0,0,0
			c0.2-0.1,0.4-0.1,0.6-0.2c0,0,0,0,0,0c0.2,0,0.4-0.1,0.7-0.1c0.2,0,0.3,0,0.4,0c0,0,0,0,0,0c0.1,0,0.3,0,0.4,0.1c0,0,0,0,0,0
			c0.3,0.1,0.5,0.2,0.8,0.3c0,0,0,0,0,0c0.2,0.1,0.4,0.3,0.6,0.5c0,0,0,0,0,0c0.2,0.2,0.3,0.4,0.5,0.7l-13.1-25.8c0,0,0,0,0,0
			c0,0,0,0,0,0s0,0,0,0s0,0,0,0c0-0.1-0.1-0.1-0.1-0.2s-0.1-0.1-0.1-0.2c0,0,0,0,0-0.1c0,0,0,0,0,0c0,0,0-0.1-0.1-0.1
			c0-0.1-0.1-0.1-0.1-0.1c0,0-0.1-0.1-0.1-0.1c0,0-0.1-0.1-0.1-0.1c0,0,0,0,0,0c0,0,0,0,0,0c0,0,0,0,0,0c0,0-0.1-0.1-0.1-0.1
			c0,0-0.1-0.1-0.1-0.1c0,0-0.1-0.1-0.1-0.1c0,0,0,0-0.1,0c0,0,0,0,0,0c0,0,0,0-0.1,0c0,0-0.1-0.1-0.1-0.1c0,0-0.1-0.1-0.1-0.1
			c0,0-0.1-0.1-0.1-0.1c0,0,0,0,0,0c0,0,0,0,0,0c0,0,0,0,0,0c0,0-0.1,0-0.1-0.1c-0.1,0-0.1-0.1-0.2-0.1c-0.1,0-0.1-0.1-0.2-0.1
			c0,0-0.1,0-0.1-0.1c0,0,0,0,0,0c0,0,0,0,0,0c-0.1,0-0.1,0-0.2-0.1c-0.1,0-0.1,0-0.2-0.1c-0.1,0-0.1,0-0.2,0c0,0,0,0,0,0
			c0,0,0,0,0,0c0,0,0,0,0,0c-0.1,0-0.2-0.1-0.3-0.1c-0.1,0-0.2,0-0.3,0c0,0,0,0,0,0c0,0,0,0,0,0c-0.1,0-0.2,0-0.3,0
			c-0.1,0-0.2,0-0.3,0c-0.1,0-0.2,0-0.3,0c-0.1,0-0.2,0-0.3,0c-0.1,0-0.2,0-0.3,0.1c0,0,0,0,0,0c0,0,0,0,0,0c-0.1,0-0.2,0-0.3,0.1
			c-0.1,0-0.1,0-0.2,0c-0.1,0-0.1,0-0.2,0c-0.1,0-0.1,0-0.2,0c-0.1,0-0.1,0-0.2,0.1c0,0,0,0,0,0c0,0,0,0,0,0c0,0,0,0,0,0
			c0,0-0.1,0-0.1,0c0,0-0.1,0-0.1,0c0,0-0.1,0-0.1,0.1s-0.1,0-0.1,0.1c0,0-0.1,0-0.1,0.1s-0.1,0-0.1,0.1c0,0-0.1,0-0.1,0.1
			c0,0-0.1,0-0.1,0.1c0,0,0,0,0,0c0,0,0,0,0,0c0,0-0.1,0-0.1,0c0,0-0.1,0-0.1,0.1s-0.1,0-0.1,0.1s-0.1,0-0.1,0.1c0,0-0.1,0-0.1,0.1
			s-0.1,0-0.1,0.1c0,0-0.1,0-0.1,0.1c0,0-0.1,0-0.1,0.1c0,0-0.1,0-0.1,0.1c0,0,0,0,0,0c0,0,0,0,0,0c0,0,0,0,0,0c0,0,0,0-0.1,0
			c0,0-0.1,0-0.1,0.1c0,0-0.1,0-0.1,0.1c0,0-0.1,0-0.1,0.1c0,0-0.1,0-0.1,0.1c0,0,0,0.1-0.1,0.1s0,0.1-0.1,0.1c0,0,0,0.1-0.1,0.1
			c0,0,0,0.1-0.1,0.1c0,0,0,0,0,0c0,0,0,0,0,0c0,0,0,0-0.1,0.1c0,0,0,0.1-0.1,0.1c0,0,0,0.1-0.1,0.1c0,0,0,0.1-0.1,0.1
			c0,0,0,0.1-0.1,0.1s0,0.1-0.1,0.1c0,0-0.1,0.1-0.1,0.1c0,0,0,0.1-0.1,0.1c0,0,0,0,0,0c0,0,0,0,0,0c0,0,0,0,0,0c0,0,0,0.1-0.1,0.1
			c0,0,0,0.1-0.1,0.1c0,0.1-0.1,0.1-0.1,0.2c0,0.1-0.1,0.1-0.1,0.2c0,0.1,0,0.1-0.1,0.2c0,0,0,0,0,0c0,0,0,0,0,0
			c0,0.1,0,0.1-0.1,0.2c0,0.1,0,0.1,0,0.2c0,0.1,0,0.1,0,0.2c0,0.1,0,0.1,0,0.2c0,0.1,0,0.1,0,0.2c0,0.1,0,0.1,0,0.2
			c0,0.1,0,0.1,0,0.2c0,0.1,0,0.1,0,0.2c0,0,0,0.1,0,0.1c0,0,0,0,0,0c0,0,0,0,0,0c0,0,0,0.1,0,0.1c0,0.1,0,0.2,0,0.3s0,0.2,0.1,0.3
			c0,0,0,0,0,0c0,0,0,0,0,0c0,0,0,0,0,0c0,0.1,0,0.1,0,0.2c0,0.1,0.1,0.2,0.1,0.2c0,0.1,0,0.1,0.1,0.2c0,0,0,0,0,0c0,0,0,0,0,0
			c0,0,0,0,0,0c0,0,0,0.1,0,0.1c0,0.1,0.1,0.1,0.1,0.2c0,0.1,0.1,0.1,0.1,0.2c0,0,0,0,0,0s0,0,0,0s0,0,0,0s0,0,0,0L150,54.2
			c-0.1-0.1-0.2-0.3-0.2-0.4c0,0,0,0,0,0C149.7,53.7,149.6,53.5,149.6,53.4z"/>
	</g>
	<path class="st0" d="M211.7,20.7c-0.1,0.2-0.2,0.4-0.3,0.5c0,0,0,0,0,0c-0.1,0.2-0.2,0.3-0.3,0.5c0,0,0,0,0,0
		c-0.1,0.1-0.3,0.3-0.4,0.4c0,0,0,0,0,0c-0.1,0.1-0.3,0.2-0.5,0.4c0,0,0,0,0,0c-0.2,0.1-0.3,0.2-0.5,0.3c0,0,0,0,0,0
		c-0.2,0.1-0.4,0.2-0.6,0.2c0,0,0,0,0,0c-0.2,0.1-0.4,0.1-0.6,0.1c0,0,0,0,0,0c-0.2,0-0.4,0-0.7,0c-0.3,0-0.6,0-0.9-0.1c0,0,0,0,0,0
		c-0.3-0.1-0.6-0.1-0.8-0.2c0,0,0,0,0,0c-0.3-0.1-0.5-0.2-0.8-0.4c0,0,0,0,0,0c-0.2-0.1-0.5-0.3-0.7-0.5c0,0,0,0,0,0
		c-0.2-0.2-0.4-0.4-0.6-0.6c0,0,0,0,0,0c-0.2-0.2-0.3-0.4-0.4-0.7c0,0,0,0,0,0c-0.1-0.2-0.2-0.5-0.3-0.8c0,0,0,0,0,0
		c-0.1-0.3-0.1-0.5-0.1-0.8c0-0.1,0-0.2,0-0.3c0,0,0-0.1,0-0.1c0-0.1,0-0.1,0-0.2c0,0,0-0.1,0-0.1c0-0.1,0-0.1,0-0.2
		c0,0,0-0.1,0-0.1c0-0.1,0-0.2,0.1-0.3l-8.1,28c0,0.1,0,0.1,0,0.2c0,0,0,0,0,0c0,0,0,0,0,0c0,0,0,0,0,0c0,0,0,0.1,0,0.1c0,0,0,0,0,0
		c0,0,0,0,0,0c0,0,0,0,0,0c0,0,0,0,0,0.1c0,0,0,0,0,0.1c0,0,0,0,0,0c0,0,0,0,0,0c0,0,0,0,0,0c0,0,0,0,0,0s0,0,0,0c0,0,0,0,0,0
		c0,0,0,0,0,0c0,0.1,0,0.1,0,0.2c0,0.1,0,0.1,0,0.2c0,0.1,0,0.1,0,0.2c0,0,0,0,0,0c0,0,0,0,0,0c0,0.1,0,0.1,0.1,0.2
		c0,0.1,0,0.1,0.1,0.2c0,0.1,0,0.1,0.1,0.2c0,0,0,0,0,0c0,0,0,0,0,0c0,0,0,0,0,0c0,0.1,0.1,0.1,0.1,0.2c0,0.1,0.1,0.1,0.1,0.2
		c0,0,0,0.1,0.1,0.1c0,0,0,0,0,0c0,0,0,0,0,0c0,0,0,0,0,0c0,0,0,0.1,0.1,0.1c0,0,0.1,0.1,0.1,0.1c0,0,0,0.1,0.1,0.1
		c0,0,0,0.1,0.1,0.1c0,0,0,0,0,0c0,0,0,0,0,0s0,0,0,0c0,0,0,0,0,0c0,0,0.1,0,0.1,0.1c0,0,0.1,0,0.1,0.1s0.1,0,0.1,0.1
		c0,0,0.1,0,0.1,0.1c0,0,0.1,0,0.1,0.1c0,0,0,0,0,0c0,0,0,0,0,0c0,0,0.1,0,0.1,0.1c0,0,0.1,0,0.1,0.1s0.1,0,0.1,0c0,0,0.1,0,0.1,0
		c0,0,0.1,0,0.1,0c0,0,0,0,0,0c0,0,0,0,0,0c0,0,0,0,0,0c0,0,0.1,0,0.1,0c0,0,0.1,0,0.1,0c0,0,0.1,0,0.1,0c0.1,0,0.1,0,0.2,0
		c0,0,0,0,0,0c0,0,0,0,0,0c0.1,0,0.1,0,0.2,0c0.1,0,0.1,0,0.2,0c0.1,0,0.1,0,0.2,0c0.1,0,0.1,0,0.2,0c0.1,0,0.1,0,0.2,0c0,0,0,0,0,0
		c0,0,0,0,0,0c0,0,0.1,0,0.1,0c0.1,0,0.1,0,0.2,0c0,0,0.1,0,0.1,0c0,0,0,0,0,0c0,0,0,0,0,0c0,0,0,0,0,0c0,0,0.1,0,0.1,0
		c0,0,0.1,0,0.1,0c0,0,0.1,0,0.1,0c0,0,0,0,0.1,0c0,0,0,0,0.1,0c0,0,0,0,0.1,0c0,0,0,0,0.1,0c0,0,0,0,0.1,0c0,0,0,0,0.1,0s0,0,0.1,0
		c0,0,0,0,0.1,0c0,0,0,0,0,0c0,0,0,0,0,0c0,0,0,0,0,0c0,0,0,0,0,0c0,0,0,0,0,0c0,0,0,0,0,0c0,0,0,0,0,0c0,0,0,0,0,0c0,0,0,0,0,0
		c0,0,0,0,0,0c0,0,0,0,0,0c0,0,0,0,0,0c0,0,0,0,0,0c0,0,0,0,0,0c0,0,0,0,0,0s0,0,0,0c0,0,0,0,0,0c0,0,0,0,0,0s0,0,0,0c0,0,0,0,0-0.1
		c0,0,0,0,0-0.1c0,0,0,0,0-0.1c0,0,0,0,0-0.1c0,0,0,0,0-0.1s0,0,0-0.1s0,0,0-0.1s0,0,0-0.1c0,0,0,0,0,0c0,0,0,0,0,0c0,0,0,0,0,0
		c0,0,0,0,0,0c0,0,0,0,0,0L211.7,20.7z"/>
	<g>
		<polygon class="st3" points="71.1,21.8 109.1,48.6 101.2,58.2 57.7,35.8 		"/>
		<polygon class="st0" points="57.7,35.8 101.2,58.2 90.6,58.2 41.4,35.8 		"/>
		<polygon class="st1" points="109.1,48.6 110.9,35.9 75.4,3.6 71.1,21.8 		"/>
		<path class="st2" d="M41.2,3.6h34.2l-4.3,18.2l-13.5,14H41.4l-5.8-14L41.2,3.6z M55,15.6c0.7,0,1.4-0.1,2-0.3
			c0.6-0.2,1.3-0.5,1.8-0.9c0.5-0.4,1-0.9,1.4-1.4c0.4-0.5,0.7-1.1,0.8-1.7c0.2-0.6,0.2-1.2,0.1-1.7c-0.1-0.5-0.3-1-0.7-1.4
			c-0.3-0.4-0.8-0.7-1.3-0.9C58.6,7.1,58,7,57.4,7c-0.7,0-1.3,0.1-2,0.3c-0.6,0.2-1.2,0.5-1.8,0.9c-0.5,0.4-1,0.8-1.4,1.4
			c-0.4,0.5-0.7,1.1-0.9,1.7c-0.2,0.6-0.2,1.2-0.1,1.7c0.1,0.5,0.3,1,0.7,1.4c0.3,0.4,0.8,0.7,1.3,0.9C53.8,15.5,54.4,15.6,55,15.6"
			/>
	</g>
	<g>
		<polygon class="st4" points="113.5,3.6 136.1,35.9 140.5,43.1 119.7,13.8 		"/>
		<polygon class="st3" points="119.7,13.8 140.5,43.1 134.7,50.5 110.3,24.6 		"/>
		<polygon class="st0" points="94.4,35.8 124.8,58.2 113,58.2 76,35.8 		"/>
		<polygon class="st0" points="125.7,50.5 134.7,50.5 110.3,24.6 96.4,24.6 		"/>
		<polygon class="st3" points="96.4,24.6 125.7,50.5 124.8,58.2 94.4,35.8 		"/>
		<path class="st2" d="M113.5,3.6l6.3,10.2l-9.4,10.7H96.4l-2,11.2H76l7-32.2H113.5z M97.5,18.2c0.7,0,1.3-0.1,2-0.4
			c0.6-0.2,1.2-0.6,1.7-1c0.5-0.4,1-0.9,1.3-1.4c0.3-0.5,0.6-1.1,0.7-1.7c0.1-0.6,0.1-1.2-0.1-1.7c-0.2-0.5-0.4-1-0.8-1.4
			c-0.4-0.4-0.8-0.7-1.4-0.9c-0.5-0.2-1.2-0.3-1.8-0.3c-0.7,0-1.3,0.1-1.9,0.3c-0.6,0.2-1.2,0.5-1.7,0.9c-0.5,0.4-1,0.9-1.3,1.4
			c-0.3,0.5-0.6,1.1-0.7,1.7c-0.1,0.6-0.1,1.2,0.1,1.7c0.1,0.5,0.4,1,0.8,1.4c0.4,0.4,0.8,0.7,1.4,1C96.2,18.1,96.8,18.2,97.5,18.2"
			/>
	</g>
	<g>
		<path class="st2" d="M135.4,2.8l21.8,33h-50.3L135.4,2.8z M137.5,32c0.7,0,1.4-0.1,2-0.4c0.6-0.2,1.2-0.6,1.7-1
			c0.5-0.4,0.9-0.9,1.2-1.5c0.3-0.6,0.5-1.2,0.5-1.8c0.1-0.6,0-1.2-0.3-1.8c-0.2-0.5-0.5-1-0.9-1.5c-0.4-0.4-0.9-0.7-1.5-1
			c-0.6-0.2-1.2-0.4-1.9-0.4s-1.3,0.1-2,0.4c-0.6,0.2-1.2,0.6-1.7,1c-0.5,0.4-0.9,0.9-1.2,1.5c-0.3,0.6-0.5,1.2-0.6,1.8
			c-0.1,0.6,0,1.2,0.2,1.8c0.2,0.6,0.5,1.1,0.9,1.5c0.4,0.4,0.9,0.8,1.5,1C136.2,31.9,136.8,32,137.5,32"/>
		<polygon class="st0" points="157.2,35.8 165.3,58.2 132.9,58.2 106.9,35.8 		"/>
	</g>
	<g>
		<polygon class="st3" points="192.8,10.3 188.4,40.6 175.5,46.8 173.1,19.1 		"/>
		<polygon class="st3" points="163.7,35.8 169.5,58.2 162,46.8 152.4,19.1 		"/>
		<polygon class="st0" points="188.2,35.8 185.3,58.2 169.5,58.2 163.7,35.8 		"/>
		<g class="st5">
			<defs>
				<path id="SVGID_1_" class="st5" d="M193.3,28.4l-4.7,24.8c-0.4,0.6-0.8,1.2-1.2,1.8c-0.4,0.6-0.7,1.1-1.1,1.6
					c-0.3,0.5-0.6,0.9-0.8,1.2c-0.2,0.3-0.3,0.5-0.3,0.5l2.9-22.4c0,0,0.2-0.3,0.5-0.7c0.3-0.4,0.7-1,1.2-1.7c0.5-0.7,1-1.5,1.6-2.3
					C192.1,30.2,192.7,29.3,193.3,28.4z"/>
			</defs>
			<clipPath id="SVGID_2_">
				<use xlink:href="#SVGID_1_"  style="overflow:visible;"/>
			</clipPath>
			<path class="st6" d="M193.3,28.4l-4.7,24.8c-0.4,0.6-0.8,1.2-1.2,1.8c-0.4,0.6-0.7,1.1-1.1,1.6c-0.3,0.5-0.6,0.9-0.8,1.2
				c-0.2,0.3-0.3,0.5-0.3,0.5l2.9-22.4c0,0,0.2-0.3,0.5-0.7c0.3-0.4,0.7-1,1.2-1.7c0.5-0.7,1-1.5,1.6-2.3
				C192.1,30.2,192.7,29.3,193.3,28.4"/>
		</g>
		<path class="st2" d="M187.6,3.6l5.2,6.7l-19.7,8.9c0.1,0.1,0.9,0.4,2.1,1c1.2,0.6,2.9,1.3,4.8,2.2c1.9,0.9,4.1,1.9,6.4,2.9
			c2.3,1,4.6,2.1,6.9,3.2c-0.6,0.9-1.2,1.8-1.8,2.6c-0.6,0.9-1.1,1.6-1.6,2.3c-0.5,0.7-0.9,1.3-1.2,1.7c-0.3,0.4-0.5,0.7-0.5,0.7
			h-24.5l-11.2-16.7l12.3-15.5H187.6z"/>
	</g>
	<path class="st2" d="M207.3,15.2c0.6,0,1.2,0.1,1.7,0.3c0.5,0.2,1,0.5,1.5,0.8c0.4,0.4,0.8,0.8,1,1.3c0.3,0.5,0.4,1,0.5,1.6
		c0,0.6,0,1.1-0.2,1.6c-0.2,0.5-0.5,0.9-0.9,1.3c-0.4,0.4-0.8,0.7-1.4,0.9c-0.5,0.2-1.1,0.3-1.7,0.3s-1.2-0.1-1.8-0.3
		c-0.5-0.2-1-0.5-1.5-0.9c-0.4-0.4-0.8-0.8-1-1.3c-0.2-0.5-0.4-1-0.4-1.6c0-0.6,0.1-1.1,0.3-1.6c0.2-0.5,0.5-0.9,0.9-1.3
		c0.4-0.4,0.8-0.6,1.4-0.8C206.1,15.3,206.7,15.2,207.3,15.2z"/>
	<g>
		<polygon class="st0" points="355.3,35.8 293,58.2 269.4,58.2 318.6,35.8 		"/>
		<polygon class="st1" points="269.4,58.2 265.4,35.9 309.3,3.6 318.6,35.8 		"/>
		<polygon class="st1" points="326.4,3.6 329.8,13.8 278.1,43.1 276.7,35.9 		"/>
		<polygon class="st2" points="343.5,3.6 355.3,35.8 318.6,35.8 309.3,3.6 329.8,13.8 326.4,3.6 		"/>
	</g>
	<path class="st3" d="M298.3,28.5c0-0.1,0-0.2,0-0.2c0-0.1,0-0.2,0-0.3c0,0,0,0,0,0c0,0,0,0,0,0c0-0.1,0-0.2-0.1-0.4c0,0,0,0,0-0.1
		s0,0,0-0.1s0,0,0-0.1s0,0,0-0.1c0-0.1-0.1-0.2-0.1-0.3c0-0.1-0.1-0.2-0.1-0.3c0-0.1-0.1-0.2-0.1-0.3c0,0,0,0,0,0c0,0,0,0,0,0
		c0-0.1-0.1-0.2-0.2-0.3c-0.1-0.1-0.1-0.2-0.2-0.3c-0.1-0.1-0.1-0.2-0.2-0.3c0,0,0,0,0,0c0,0,0,0,0,0c0,0,0,0,0,0
		c-0.1-0.1-0.1-0.2-0.2-0.3s-0.1-0.2-0.2-0.3c0-0.1-0.1-0.1-0.1-0.2c0,0-0.1-0.1-0.1-0.1c0,0,0,0,0,0c0,0,0,0-0.1-0.1
		c-0.1-0.1-0.1-0.1-0.2-0.2c-0.1-0.1-0.1-0.1-0.2-0.1c0,0-0.1-0.1-0.2-0.1s-0.1-0.1-0.2-0.1c0,0,0,0-0.1-0.1c0,0,0,0,0,0
		c0,0,0,0,0,0c0,0,0,0-0.1-0.1c-0.1,0-0.1-0.1-0.2-0.1c-0.1,0-0.1-0.1-0.2-0.1c-0.1,0-0.1-0.1-0.2-0.1c-0.1,0-0.1-0.1-0.2-0.1
		c-0.1,0-0.1-0.1-0.2-0.1c0,0,0,0,0,0c0,0,0,0,0,0c-0.1,0-0.1-0.1-0.2-0.1c-0.1,0-0.1-0.1-0.2-0.1c-0.1,0-0.1-0.1-0.2-0.1
		c-0.1,0-0.1-0.1-0.2-0.1c-0.1,0-0.1-0.1-0.2-0.1c0,0,0,0,0,0c0,0,0,0,0,0c0,0,0,0,0,0c-0.1,0-0.1,0-0.2-0.1c-0.1,0-0.1,0-0.2-0.1
		c-0.1,0-0.1,0-0.2-0.1c-0.1,0-0.2-0.1-0.3-0.1c0,0,0,0,0,0c0,0,0,0,0,0c-0.1,0-0.2,0-0.3,0c-0.1,0-0.2,0-0.3,0c-0.1,0-0.2,0-0.3,0
		c-0.1,0-0.2,0-0.3,0c-0.1,0-0.2,0-0.3,0c0,0,0,0,0,0c0,0,0,0,0,0c0,0,0,0,0,0c-0.1,0-0.2,0-0.2,0c-0.1,0-0.2,0-0.3,0.1
		c0,0-0.1,0-0.1,0c0,0,0,0,0,0c0,0,0,0,0,0c0,0,0,0,0,0c0,0-0.1,0-0.1,0c0,0-0.1,0-0.1,0c0,0-0.1,0-0.1,0.1c0,0-0.1,0-0.1,0
		c0,0,0,0,0,0c0,0,0,0,0,0c0,0,0,0,0,0c0,0,0,0-0.1,0c0,0-0.1,0-0.1,0.1c0,0-0.1,0-0.1,0.1c0,0,0,0-0.1,0s0,0-0.1,0c0,0,0,0-0.1,0
		c0,0,0,0-0.1,0l-38.3,26.3c0.1-0.1,0.2-0.1,0.4-0.2c0,0,0,0,0,0c0.1-0.1,0.3-0.1,0.4-0.2c0,0,0,0,0,0c0.1,0,0.3-0.1,0.4-0.1
		c0,0,0,0,0,0c0.1,0,0.3,0,0.5,0c0.2,0,0.4,0,0.7,0.1c0,0,0,0,0,0c0.2,0,0.4,0.1,0.6,0.2c0,0,0,0,0,0c0.2,0.1,0.4,0.2,0.6,0.3
		c0,0,0,0,0,0c0.2,0.1,0.4,0.2,0.5,0.4c0,0,0,0,0,0c0.2,0.1,0.3,0.3,0.5,0.5c0,0,0,0,0,0c0.1,0.2,0.3,0.3,0.4,0.5c0,0,0,0,0,0
		c0.1,0.2,0.2,0.4,0.3,0.6c0,0,0,0,0,0c0.1,0.2,0.1,0.4,0.2,0.6c0,0.1,0,0.3,0,0.4c0,0,0,0,0,0c0,0.1,0,0.2,0,0.4c0,0,0,0,0,0.1
		c0,0.1,0,0.2-0.1,0.4c0,0,0,0,0,0.1c0,0.1-0.1,0.2-0.1,0.3c0,0,0,0,0,0c-0.1,0.2-0.2,0.4-0.4,0.6c0,0,0,0,0,0
		c-0.2,0.2-0.4,0.3-0.6,0.5l41.2-23.8c0.1-0.1,0.3-0.2,0.4-0.3c0,0,0,0,0.1,0c0,0,0.1-0.1,0.1-0.1c0.1,0,0.1-0.1,0.2-0.1
		c0,0,0.1-0.1,0.1-0.1c0,0,0,0,0.1-0.1c0,0,0,0,0-0.1c0,0,0.1-0.1,0.1-0.1c0.1-0.1,0.1-0.1,0.1-0.2c0,0,0.1-0.1,0.1-0.1c0,0,0,0,0,0
		c0.1-0.1,0.1-0.2,0.1-0.3c0,0,0-0.1,0.1-0.1c0,0,0,0,0,0c0,0,0,0,0,0c0,0,0-0.1,0-0.1c0-0.1,0.1-0.2,0.1-0.3c0,0,0-0.1,0-0.1
		c0,0,0-0.1,0-0.1c0,0,0-0.1,0-0.1c0-0.1,0-0.2,0-0.3C298.3,28.6,298.3,28.6,298.3,28.5C298.3,28.6,298.3,28.6,298.3,28.5
		C298.3,28.6,298.3,28.5,298.3,28.5z"/>
	<g>
		<polygon class="st0" points="315.2,35.8 267.2,58.2 234.7,58.2 265,35.8 		"/>
		<polygon class="st4" points="265,35.8 234.7,58.2 247.7,35.3 282.5,2.8 		"/>
		<path class="st2" d="M282.5,2.8l32.8,33H265L282.5,2.8z M294.3,32c0.7,0,1.3-0.1,1.9-0.4c0.5-0.2,1-0.6,1.4-1
			c0.4-0.4,0.6-0.9,0.7-1.5c0.1-0.6,0.1-1.2-0.1-1.8c-0.2-0.6-0.5-1.2-0.8-1.8c-0.4-0.5-0.9-1-1.4-1.5c-0.6-0.4-1.2-0.7-1.8-1
			c-0.6-0.2-1.3-0.4-2-0.4c-0.7,0-1.3,0.1-1.8,0.4c-0.5,0.2-1,0.6-1.3,1c-0.4,0.4-0.6,0.9-0.7,1.5c-0.1,0.6-0.1,1.2,0,1.8
			c0.1,0.6,0.4,1.2,0.8,1.8c0.4,0.6,0.9,1.1,1.4,1.5c0.6,0.4,1.2,0.8,1.8,1C292.9,31.9,293.6,32,294.3,32"/>
	</g>
	<g>
		<polygon class="st0" points="261.6,35.8 232.6,58.2 208.9,58.2 224.9,35.8 		"/>
		<polygon class="st2" points="256.1,3.6 261.6,35.8 224.9,35.8 221.8,3.6 240.3,13.8 		"/>
		<polygon class="st1" points="208.9,58.2 224.9,35.8 221.8,3.6 207.6,35.9 		"/>
	</g>
</g>
</svg>
